<?xml version="1.0" encoding="utf-8"?>
<!-- Generator: Adobe Illustrator 21.0.0, SVG Export Plug-In . SVG Version: 6.00 Build 0)  -->
<svg version="1.1" id="Layer_1" xmlns="http://www.w3.org/2000/svg" xmlns:xlink="http://www.w3.org/1999/xlink" x="0px" y="0px"
	 width="1400px" height="1400px" viewBox="0 0 1400 1400" enable-background="new 0 0 1400 1400" xml:space="preserve">
<linearGradient id="SVGID_1_" gradientUnits="userSpaceOnUse" x1="0" y1="0" x2="1400" y2="1400">
	<stop  offset="0" style="stop-color:#FFCC99"/>
	<stop  offset="1" style="stop-color:#FF99D1"/>
</linearGradient>
<rect fill-rule="evenodd" clip-rule="evenodd" fill="url(#SVGID_1_)" width="1400" height="1400"/>
<g>
	<linearGradient id="SVGID_2_" gradientUnits="userSpaceOnUse" x1="156.0211" y1="47.9411" x2="1403.8815" y2="1295.8015">
		<stop  offset="0" style="stop-color:#E69F86"/>
		<stop  offset="1" style="stop-color:#D56CC7"/>
	</linearGradient>
	<polygon fill-rule="evenodd" clip-rule="evenodd" fill="url(#SVGID_2_)" points="1078.6,837.5 788.4,1005.1 697.7,987.2 
		987.8,819.7 987.8,778.5 1022.4,758.6 1022.4,647.3 1026.9,648.2 1323.2,817.5 1296.6,832.8 	"/>
	<g>
		<g>
			<polygon fill-rule="evenodd" clip-rule="evenodd" fill="#1A1A1A" points="545.3,163 987.8,418.4 987.8,778.5 545.3,523 			"/>
			<polygon fill-rule="evenodd" clip-rule="evenodd" fill="#4D4D4D" points="1022.4,398.5 987.8,418.4 987.8,778.5 1022.4,758.6 			
				"/>
			<polygon fill-rule="evenodd" clip-rule="evenodd" fill="#B3B3B3" points="1022.4,398.5 987.8,418.4 545.3,163 579.9,143 			"/>
			<polygon fill-rule="evenodd" clip-rule="evenodd" fill="#333333" points="564.4,197.9 968.7,431.3 968.7,743.6 564.4,510.2 			
				"/>
		</g>
		<g>
			<g>
				<polygon fill-rule="evenodd" clip-rule="evenodd" fill="#999999" points="255.2,690.5 697.7,946 697.7,987.2 255.2,731.7 				
					"/>
				<polygon fill-rule="evenodd" clip-rule="evenodd" fill="#666666" points="987.8,778.5 697.7,946 697.7,987.2 987.8,819.7 				
					"/>
				<polygon fill-rule="evenodd" clip-rule="evenodd" fill="#CCCCCC" points="987.8,778.5 697.7,946 255.2,690.5 545.3,523 				"/>
				<polygon fill-rule="evenodd" clip-rule="evenodd" fill="#4D4D4D" points="261.3,704.6 291.3,721.8 291.3,738.1 261.3,720.8 				
					"/>
				<polygon fill-rule="evenodd" clip-rule="evenodd" fill="#4D4D4D" points="303.1,728.7 333,746 333,762.2 303.1,744.9 				"/>
				<path fill-rule="evenodd" clip-rule="evenodd" fill="#4D4D4D" d="M665.7,943.5c4.3,2.5,7.8,8,7.8,12.4c0,4.3-3.5,5.8-7.8,3.3
					c-4.3-2.5-7.8-8-7.8-12.3C657.9,942.4,661.4,941,665.7,943.5L665.7,943.5z"/>
				<path fill-rule="evenodd" clip-rule="evenodd" fill="#4D4D4D" d="M637.8,925.9c4.3,2.5,7.8,8,7.8,12.3c0,4.3-3.5,5.8-7.8,3.3
					c-4.3-2.5-7.8-8-7.8-12.3S633.5,923.3,637.8,925.9L637.8,925.9z"/>
				<polygon fill-rule="evenodd" clip-rule="evenodd" fill="#333333" points="977,796.1 927.9,824.5 927.9,843.8 977,815.5 				"/>
			</g>
			<g>
				<polygon fill-rule="evenodd" clip-rule="evenodd" fill="#FFFFFF" points="923.8,787.7 780.3,870.6 382.8,641.1 526.4,558.2 				
					"/>
				<polygon fill-rule="evenodd" clip-rule="evenodd" fill="#333333" points="871.8,711.5 843.7,727.8 584,577.8 612.1,561.6 				
					"/>
				<polygon fill-rule="evenodd" clip-rule="evenodd" fill="#FFFFFF" points="629.8,792.2 542.6,842.5 418.1,770.6 505.2,720.3 				
					"/>
				<g>
					<g>
						<g>
							<polygon fill-rule="evenodd" clip-rule="evenodd" fill="#666666" points="493.7,579 532.8,601.6 532.8,605.2 493.7,582.7 
															"/>
							<polygon fill-rule="evenodd" clip-rule="evenodd" fill="#4D4D4D" points="558.4,586.8 532.8,601.6 532.8,605.2 558.4,590.4 
															"/>
							<polygon fill-rule="evenodd" clip-rule="evenodd" fill="#808080" points="558.4,586.8 532.8,601.6 493.7,579 519.3,564.3 
															"/>
						</g>
						<g>
							<polygon fill-rule="evenodd" clip-rule="evenodd" fill="#666666" points="542.8,607.4 581.8,629.9 581.8,633.5 542.8,611 
															"/>
							<polygon fill-rule="evenodd" clip-rule="evenodd" fill="#4D4D4D" points="607.4,615.1 581.8,629.9 581.8,633.5 607.4,618.7 
															"/>
							<polygon fill-rule="evenodd" clip-rule="evenodd" fill="#808080" points="607.4,615.1 581.8,629.9 542.8,607.4 568.4,592.6 
															"/>
						</g>
						<g>
							<polygon fill-rule="evenodd" clip-rule="evenodd" fill="#666666" points="591.8,635.7 630.9,658.2 630.9,661.8 591.8,639.3 
															"/>
							<polygon fill-rule="evenodd" clip-rule="evenodd" fill="#4D4D4D" points="656.5,643.4 630.9,658.2 630.9,661.8 656.5,647.1 
															"/>
							<polygon fill-rule="evenodd" clip-rule="evenodd" fill="#808080" points="656.5,643.4 630.9,658.2 591.8,635.7 617.4,620.9 
															"/>
						</g>
						<g>
							<polygon fill-rule="evenodd" clip-rule="evenodd" fill="#666666" points="640.9,664 679.9,686.5 679.9,690.2 640.9,667.6 
															"/>
							<polygon fill-rule="evenodd" clip-rule="evenodd" fill="#4D4D4D" points="705.5,671.8 679.9,686.5 679.9,690.2 705.5,675.4 
															"/>
							<polygon fill-rule="evenodd" clip-rule="evenodd" fill="#808080" points="705.5,671.8 679.9,686.5 640.9,664 666.5,649.2 
															"/>
						</g>
						<g>
							<polygon fill-rule="evenodd" clip-rule="evenodd" fill="#666666" points="690,692.3 729,714.8 729,718.5 690,695.9 							
								"/>
							<polygon fill-rule="evenodd" clip-rule="evenodd" fill="#4D4D4D" points="754.6,700.1 729,714.8 729,718.5 754.6,703.7 
															"/>
							<polygon fill-rule="evenodd" clip-rule="evenodd" fill="#808080" points="754.6,700.1 729,714.8 690,692.3 715.5,677.5 
															"/>
						</g>
						<g>
							<polygon fill-rule="evenodd" clip-rule="evenodd" fill="#666666" points="739,720.6 778,743.2 778,746.8 739,724.3 							
								"/>
							<polygon fill-rule="evenodd" clip-rule="evenodd" fill="#4D4D4D" points="803.6,728.4 778,743.2 778,746.8 803.6,732 							
								"/>
							<polygon fill-rule="evenodd" clip-rule="evenodd" fill="#808080" points="803.6,728.4 778,743.2 739,720.6 764.6,705.8 
															"/>
						</g>
						<g>
							<polygon fill-rule="evenodd" clip-rule="evenodd" fill="#666666" points="788.1,748.9 827.1,771.5 827.1,775.1 788.1,752.6 
															"/>
							<polygon fill-rule="evenodd" clip-rule="evenodd" fill="#4D4D4D" points="852.7,756.7 827.1,771.5 827.1,775.1 852.7,760.3 
															"/>
							<polygon fill-rule="evenodd" clip-rule="evenodd" fill="#808080" points="852.7,756.7 827.1,771.5 788.1,748.9 813.6,734.2 
															"/>
						</g>
						<g>
							<polygon fill-rule="evenodd" clip-rule="evenodd" fill="#666666" points="837.1,777.3 876.1,799.8 876.1,803.4 837.1,780.9 
															"/>
							<polygon fill-rule="evenodd" clip-rule="evenodd" fill="#4D4D4D" points="901.7,785 876.1,799.8 876.1,803.4 901.7,788.7 
															"/>
							<polygon fill-rule="evenodd" clip-rule="evenodd" fill="#808080" points="901.7,785 876.1,799.8 837.1,777.3 862.7,762.5 
															"/>
						</g>
					</g>
					<g>
						<g>
							<polygon fill-rule="evenodd" clip-rule="evenodd" fill="#666666" points="463.3,596.6 502.4,619.1 502.4,622.8 463.3,600.2 
															"/>
							<polygon fill-rule="evenodd" clip-rule="evenodd" fill="#4D4D4D" points="528,604.3 502.4,619.1 502.4,622.8 528,608 							
								"/>
							<polygon fill-rule="evenodd" clip-rule="evenodd" fill="#808080" points="528,604.3 502.4,619.1 463.3,596.6 488.9,581.8 
															"/>
						</g>
						<g>
							<polygon fill-rule="evenodd" clip-rule="evenodd" fill="#666666" points="512.4,624.9 551.4,647.4 551.4,651.1 512.4,628.5 
															"/>
							<polygon fill-rule="evenodd" clip-rule="evenodd" fill="#4D4D4D" points="577,632.7 551.4,647.4 551.4,651.1 577,636.3 
															"/>
							<polygon fill-rule="evenodd" clip-rule="evenodd" fill="#808080" points="577,632.7 551.4,647.4 512.4,624.9 538,610.1 
															"/>
						</g>
						<g>
							<polygon fill-rule="evenodd" clip-rule="evenodd" fill="#666666" points="561.4,653.2 600.5,675.7 600.5,679.4 561.4,656.8 
															"/>
							<polygon fill-rule="evenodd" clip-rule="evenodd" fill="#4D4D4D" points="626.1,661 600.5,675.7 600.5,679.4 626.1,664.6 
															"/>
							<polygon fill-rule="evenodd" clip-rule="evenodd" fill="#808080" points="626.1,661 600.5,675.7 561.4,653.2 587,638.4 
															"/>
						</g>
						<g>
							<polygon fill-rule="evenodd" clip-rule="evenodd" fill="#666666" points="610.5,681.6 649.5,704.1 649.5,707.7 610.5,685.2 
															"/>
							<polygon fill-rule="evenodd" clip-rule="evenodd" fill="#4D4D4D" points="675.1,689.3 649.5,704.1 649.5,707.7 675.1,692.9 
															"/>
							<polygon fill-rule="evenodd" clip-rule="evenodd" fill="#808080" points="675.1,689.3 649.5,704.1 610.5,681.6 636.1,666.8 
															"/>
						</g>
						<g>
							<polygon fill-rule="evenodd" clip-rule="evenodd" fill="#666666" points="659.5,709.9 698.6,732.4 698.6,736 659.5,713.5 
															"/>
							<polygon fill-rule="evenodd" clip-rule="evenodd" fill="#4D4D4D" points="724.2,717.6 698.6,732.4 698.6,736 724.2,721.2 
															"/>
							<polygon fill-rule="evenodd" clip-rule="evenodd" fill="#808080" points="724.2,717.6 698.6,732.4 659.5,709.9 685.1,695.1 
															"/>
						</g>
						<g>
							<polygon fill-rule="evenodd" clip-rule="evenodd" fill="#666666" points="708.6,738.2 747.6,760.7 747.6,764.4 708.6,741.8 
															"/>
							<polygon fill-rule="evenodd" clip-rule="evenodd" fill="#4D4D4D" points="773.2,746 747.6,760.7 747.6,764.4 773.2,749.6 
															"/>
							<polygon fill-rule="evenodd" clip-rule="evenodd" fill="#808080" points="773.2,746 747.6,760.7 708.6,738.2 734.2,723.4 
															"/>
						</g>
						<g>
							<polygon fill-rule="evenodd" clip-rule="evenodd" fill="#666666" points="757.6,766.5 796.7,789 796.7,792.7 757.6,770.1 
															"/>
							<polygon fill-rule="evenodd" clip-rule="evenodd" fill="#4D4D4D" points="822.3,774.3 796.7,789 796.7,792.7 822.3,777.9 
															"/>
							<polygon fill-rule="evenodd" clip-rule="evenodd" fill="#808080" points="822.3,774.3 796.7,789 757.6,766.5 783.2,751.7 
															"/>
						</g>
						<g>
							<polygon fill-rule="evenodd" clip-rule="evenodd" fill="#666666" points="806.7,794.8 845.7,817.4 845.7,821 806.7,798.5 
															"/>
							<polygon fill-rule="evenodd" clip-rule="evenodd" fill="#4D4D4D" points="871.3,802.6 845.7,817.4 845.7,821 871.3,806.2 
															"/>
							<polygon fill-rule="evenodd" clip-rule="evenodd" fill="#808080" points="871.3,802.6 845.7,817.4 806.7,794.8 832.3,780 
															"/>
						</g>
					</g>
					<g>
						<g>
							<polygon fill-rule="evenodd" clip-rule="evenodd" fill="#666666" points="432.9,614.1 472,636.7 472,640.3 432.9,617.8 
															"/>
							<polygon fill-rule="evenodd" clip-rule="evenodd" fill="#4D4D4D" points="497.6,621.9 472,636.7 472,640.3 497.6,625.5 
															"/>
							<polygon fill-rule="evenodd" clip-rule="evenodd" fill="#808080" points="497.6,621.9 472,636.7 432.9,614.1 458.5,599.4 
															"/>
						</g>
						<g>
							<polygon fill-rule="evenodd" clip-rule="evenodd" fill="#666666" points="482,642.5 521,665 521,668.6 482,646.1 							"/>
							<polygon fill-rule="evenodd" clip-rule="evenodd" fill="#4D4D4D" points="546.6,650.2 521,665 521,668.6 546.6,653.9 							
								"/>
							<polygon fill-rule="evenodd" clip-rule="evenodd" fill="#808080" points="546.6,650.2 521,665 482,642.5 507.6,627.7 							
								"/>
						</g>
						<g>
							<polygon fill-rule="evenodd" clip-rule="evenodd" fill="#666666" points="531,670.8 570.1,693.3 570.1,697 531,674.4 							
								"/>
							<polygon fill-rule="evenodd" clip-rule="evenodd" fill="#4D4D4D" points="595.7,678.5 570.1,693.3 570.1,697 595.7,682.2 
															"/>
							<polygon fill-rule="evenodd" clip-rule="evenodd" fill="#808080" points="595.7,678.5 570.1,693.3 531,670.8 556.6,656 
															"/>
						</g>
						<g>
							<polygon fill-rule="evenodd" clip-rule="evenodd" fill="#666666" points="580.1,699.1 619.1,721.6 619.1,725.3 580.1,702.7 
															"/>
							<polygon fill-rule="evenodd" clip-rule="evenodd" fill="#4D4D4D" points="644.7,706.9 619.1,721.6 619.1,725.3 644.7,710.5 
															"/>
							<polygon fill-rule="evenodd" clip-rule="evenodd" fill="#808080" points="644.7,706.9 619.1,721.6 580.1,699.1 605.7,684.3 
															"/>
						</g>
						<g>
							<polygon fill-rule="evenodd" clip-rule="evenodd" fill="#666666" points="629.1,727.4 668.2,749.9 668.2,753.6 629.1,731 
															"/>
							<polygon fill-rule="evenodd" clip-rule="evenodd" fill="#4D4D4D" points="693.8,735.2 668.2,749.9 668.2,753.6 693.8,738.8 
															"/>
							<polygon fill-rule="evenodd" clip-rule="evenodd" fill="#808080" points="693.8,735.2 668.2,749.9 629.1,727.4 654.7,712.6 
															"/>
						</g>
						<g>
							<polygon fill-rule="evenodd" clip-rule="evenodd" fill="#666666" points="678.2,755.7 717.2,778.3 717.2,781.9 678.2,759.4 
															"/>
							<polygon fill-rule="evenodd" clip-rule="evenodd" fill="#4D4D4D" points="742.8,763.5 717.2,778.3 717.2,781.9 742.8,767.1 
															"/>
							<polygon fill-rule="evenodd" clip-rule="evenodd" fill="#808080" points="742.8,763.5 717.2,778.3 678.2,755.7 703.8,741 
															"/>
						</g>
						<g>
							<polygon fill-rule="evenodd" clip-rule="evenodd" fill="#666666" points="727.2,784.1 766.3,806.6 766.3,810.2 727.2,787.7 
															"/>
							<polygon fill-rule="evenodd" clip-rule="evenodd" fill="#4D4D4D" points="791.9,791.8 766.3,806.6 766.3,810.2 791.9,795.4 
															"/>
							<polygon fill-rule="evenodd" clip-rule="evenodd" fill="#808080" points="791.9,791.8 766.3,806.6 727.2,784.1 752.8,769.3 
															"/>
						</g>
						<g>
							<polygon fill-rule="evenodd" clip-rule="evenodd" fill="#666666" points="776.3,812.4 815.3,834.9 815.3,838.5 776.3,816 
															"/>
							<polygon fill-rule="evenodd" clip-rule="evenodd" fill="#4D4D4D" points="840.9,820.1 815.3,834.9 815.3,838.5 840.9,823.8 
															"/>
							<polygon fill-rule="evenodd" clip-rule="evenodd" fill="#808080" points="840.9,820.1 815.3,834.9 776.3,812.4 801.9,797.6 
															"/>
						</g>
					</g>
					<g>
						<g>
							<polygon fill-rule="evenodd" clip-rule="evenodd" fill="#666666" points="402.5,631.7 441.6,654.2 441.6,657.9 402.5,635.3 
															"/>
							<polygon fill-rule="evenodd" clip-rule="evenodd" fill="#4D4D4D" points="467.1,639.5 441.6,654.2 441.6,657.9 467.1,643.1 
															"/>
							<polygon fill-rule="evenodd" clip-rule="evenodd" fill="#808080" points="467.1,639.5 441.6,654.2 402.5,631.7 428.1,616.9 
															"/>
						</g>
						<g>
							<polygon fill-rule="evenodd" clip-rule="evenodd" fill="#666666" points="451.6,660 490.6,682.5 490.6,686.2 451.6,663.6 
															"/>
							<polygon fill-rule="evenodd" clip-rule="evenodd" fill="#4D4D4D" points="516.2,667.8 490.6,682.5 490.6,686.2 516.2,671.4 
															"/>
							<polygon fill-rule="evenodd" clip-rule="evenodd" fill="#808080" points="516.2,667.8 490.6,682.5 451.6,660 477.2,645.2 
															"/>
						</g>
						<g>
							<polygon fill-rule="evenodd" clip-rule="evenodd" fill="#666666" points="500.6,688.3 686.8,795.8 686.8,799.5 500.6,692 
															"/>
							<polygon fill-rule="evenodd" clip-rule="evenodd" fill="#4D4D4D" points="712.4,781.1 686.8,795.8 686.8,799.5 712.4,784.7 
															"/>
							<polygon fill-rule="evenodd" clip-rule="evenodd" fill="#808080" points="712.4,781.1 686.8,795.8 500.6,688.3 526.2,673.6 
															"/>
						</g>
						<g>
							<polygon fill-rule="evenodd" clip-rule="evenodd" fill="#666666" points="696.8,801.6 735.9,824.1 735.9,827.8 696.8,805.2 
															"/>
							<polygon fill-rule="evenodd" clip-rule="evenodd" fill="#4D4D4D" points="761.5,809.4 735.9,824.1 735.9,827.8 761.5,813 
															"/>
							<polygon fill-rule="evenodd" clip-rule="evenodd" fill="#808080" points="761.5,809.4 735.9,824.1 696.8,801.6 722.4,786.8 
															"/>
						</g>
						<g>
							<polygon fill-rule="evenodd" clip-rule="evenodd" fill="#666666" points="745.9,829.9 784.9,852.5 784.9,856.1 745.9,833.6 
															"/>
							<polygon fill-rule="evenodd" clip-rule="evenodd" fill="#4D4D4D" points="810.5,837.7 784.9,852.5 784.9,856.1 810.5,841.3 
															"/>
							<polygon fill-rule="evenodd" clip-rule="evenodd" fill="#808080" points="810.5,837.7 784.9,852.5 745.9,829.9 771.5,815.1 
															"/>
						</g>
					</g>
				</g>
			</g>
		</g>
	</g>
</g>
<g>
	<linearGradient id="SVGID_3_" gradientUnits="userSpaceOnUse" x1="-217.0089" y1="420.9711" x2="1030.8516" y2="1668.8315">
		<stop  offset="0" style="stop-color:#E69F86"/>
		<stop  offset="1" style="stop-color:#D56CC7"/>
	</linearGradient>
	<polygon fill-rule="evenodd" clip-rule="evenodd" fill="url(#SVGID_3_)" points="692.6,1159.6 485.9,1278.9 466,1275 663.2,1161.1 
		663.2,1147.1 594.7,1107.5 602.6,1108.1 	"/>
	<g>
		<g>
			<polygon fill-rule="evenodd" clip-rule="evenodd" fill="#CCCCCC" points="364.8,1202.6 466,1261 466,1275 364.8,1216.6 			"/>
			<polygon fill-rule="evenodd" clip-rule="evenodd" fill="#999999" points="663.2,1147.1 466,1261 466,1275 663.2,1161.1 			"/>
			<polygon fill-rule="evenodd" clip-rule="evenodd" fill="#FFFFFF" points="663.2,1147.1 466,1261 364.8,1202.6 562.1,1088.7 			
				"/>
			<polygon fill-rule="evenodd" clip-rule="evenodd" fill="#333333" points="637.2,1155.3 485.4,1243 396.1,1191.4 547.9,1103.7 			
				"/>
			<path fill-rule="evenodd" clip-rule="evenodd" fill="#CCCCCC" d="M422.6,1225.9c5.8,0,10.6-2.4,10.6-5.3c0-2.9-4.8-5.3-10.6-5.3
				c-5.8,0-10.6,2.4-10.6,5.3C412,1223.6,416.8,1225.9,422.6,1225.9L422.6,1225.9z"/>
			<polygon fill-rule="evenodd" clip-rule="evenodd" fill="#808080" points="440.5,1250.9 457.1,1260.4 457.1,1265.7 440.5,1256.2 
							"/>
		</g>
		<g>
			<polygon fill-rule="evenodd" clip-rule="evenodd" fill="#FFFFFF" points="644.6,1162.1 625.5,1173.1 627,1174.1 646.2,1163 			
				"/>
			<polygon fill-rule="evenodd" clip-rule="evenodd" fill="#CCCCCC" points="625.5,1173.1 627,1174.1 627,1180.3 625.5,1179.4 			
				"/>
			<polygon fill-rule="evenodd" clip-rule="evenodd" fill="#B3B3B3" points="646.2,1163 627,1174.1 627,1180.3 646.2,1169.2 			"/>
		</g>
	</g>
</g>
<g>
	<linearGradient id="SVGID_4_" gradientUnits="userSpaceOnUse" x1="-14.1402" y1="218.1024" x2="1233.7202" y2="1465.9628">
		<stop  offset="0" style="stop-color:#E69F86"/>
		<stop  offset="1" style="stop-color:#D56CC7"/>
	</linearGradient>
	<polygon fill-rule="evenodd" clip-rule="evenodd" fill="url(#SVGID_4_)" points="449.6,574.4 359.6,626.4 268.8,608.5 358.8,556.5 
		358.8,522.8 359.6,523 	"/>
	<g>
		<g>
			<polygon fill-rule="evenodd" clip-rule="evenodd" fill="#CC6633" points="179.7,444.4 268.8,495.9 268.8,608.5 179.7,557 			"/>
			<polygon fill-rule="evenodd" clip-rule="evenodd" fill="#AB4A24" points="358.8,443.9 268.8,495.9 268.8,608.5 358.8,556.5 			
				"/>
			<polygon fill-rule="evenodd" clip-rule="evenodd" fill="#F5944F" points="358.8,443.9 268.8,495.9 179.7,444.4 269.7,392.5 			
				"/>
			<polygon fill-rule="evenodd" clip-rule="evenodd" fill="#FFFF99" points="179.7,466.6 268.8,518 268.8,527.6 179.7,476.1 			"/>
			<polygon fill-rule="evenodd" clip-rule="evenodd" fill="#D9C36C" points="358,466.6 268.8,518 268.8,527.6 358,476.1 			"/>
			<polygon fill-rule="evenodd" clip-rule="evenodd" fill="#996633" points="335.8,444 268.9,482.6 202.7,444.4 269.6,405.8 			"/>
		</g>
		<g>
			<path fill-rule="evenodd" clip-rule="evenodd" fill="#CCFF66" d="M272.5,473.1L223.8,445c-3.3-25-10.6-46.3-28.8-57.4
				c12,2.5,23.2,7.5,30.5,23.3c-3.8-22.4-2-37.7,2.6-49.4c15.3,4.7,25,16.5,32.3,31.3c-0.3-15.2,5.6-27.8,18.1-37.7
				c11.5,10.3,17,24.5,17.3,42.2c14.6-16.3,34.8-19.9,58.4-16c-5.8,14.3-13.6,27.7-26.9,38.3c14.1-6.3,28.1-6.3,42.2-0.4
				c-18.2-1-34.6,5.8-48,25.5L272.5,473.1z"/>
			<path fill-rule="evenodd" clip-rule="evenodd" fill="#51AD67" d="M272.5,473.1c-8.7-19.5-20.1-37.1-45.9-44.2
				c11.8-1.2,23-0.6,33.7,2.8c-12-13.2-15.9-30.8-15-51.1c17.1,2.5,29.3,13.9,37,33.4c2.2-23.9,13.1-39.6,31.7-47.7
				c7.8,13.9,10.4,29.9,7.1,48.4c10.4-8.5,24.3-12.5,43.6-9.5c-21.2,6.6-35.3,19.9-43,39.4L272.5,473.1z"/>
		</g>
	</g>
</g>
<g>
	<polygon fill-rule="evenodd" clip-rule="evenodd" fill="#66FFCC" points="1084.3,407.2 1244.2,499.5 1244.2,634.6 1222.3,622 
		1180.3,633.4 1194.6,606 1084.3,542.3 	"/>
	<polygon fill-rule="evenodd" clip-rule="evenodd" fill="#3CD6A3" points="1258.9,491 1244.2,499.5 1244.2,634.6 1258.9,626.1 	"/>
	<polygon fill-rule="evenodd" clip-rule="evenodd" fill="#C4FFEB" points="1258.9,491 1244.2,499.5 1084.3,407.2 1099,398.6 	"/>
	<polygon fill-rule="evenodd" clip-rule="evenodd" fill="#FFFFFF" points="1098.6,435.6 1229.9,511.5 1229.9,608.1 1098.6,532.2 	
		"/>
	<path fill-rule="evenodd" clip-rule="evenodd" fill="#666666" d="M1118,486.6l23.1,13.4v17l-23.1-13.3V486.6z M1187.3,526.7
		l23.1,13.4v17l-23.1-13.4V526.7z M1152.7,506.7l23.1,13.3v17l-23.1-13.3V506.7z"/>
</g>
<g>
	<polygon fill-rule="evenodd" clip-rule="evenodd" fill="#FF944D" points="893.7,129.6 1053.6,221.9 1053.6,357.1 946.3,295.1 
		942.3,332.6 918.6,279.1 893.7,264.7 	"/>
	<path fill-rule="evenodd" clip-rule="evenodd" fill="#DA6D24" d="M1068.4,213.4l-14.8,8.5v135.1l14.8-8.5V213.4z M959.3,302.6
		l-2.3,21.5l-14.8,8.5l4-37.5L959.3,302.6z"/>
	<polygon fill-rule="evenodd" clip-rule="evenodd" fill="#FFC8A4" points="1068.4,213.4 1053.6,221.9 893.7,129.6 908.5,121.1 	"/>
	<polygon fill-rule="evenodd" clip-rule="evenodd" fill="#FFFFFF" points="908,158.1 1039.4,233.9 1039.4,330.5 908,254.7 	"/>
	<path fill-rule="evenodd" clip-rule="evenodd" fill="#FF6666" d="M936.7,195.5l72.8,42.1l-36.4,5.8L936.7,195.5z M1010.9,242.4
		v50.8l-74.5-43v-49.3l36.3,47.6L1010.9,242.4z"/>
</g>
<g>
	<polygon fill-rule="evenodd" clip-rule="evenodd" fill="#964CFF" points="436.5,190 596.4,282.3 596.4,417.5 436.5,325.1 	"/>
	<polygon fill-rule="evenodd" clip-rule="evenodd" fill="#6F24D9" points="611.1,273.8 596.4,282.3 596.4,417.5 611.1,409 	"/>
	<polygon fill-rule="evenodd" clip-rule="evenodd" fill="#C9A3FF" points="611.1,273.8 596.4,282.3 436.5,190 451.2,181.5 	"/>
	<polygon fill-rule="evenodd" clip-rule="evenodd" fill="#FFFFFF" points="450.8,218.5 582.1,294.3 582.1,390.9 450.8,315.1 	"/>
	<path fill-rule="evenodd" clip-rule="evenodd" fill="#33CC66" d="M523,315.8c8.4-7.2,22.6-20.7,9.6-32.9c-3.3-3-8-7.8-11.1-7.2
		c-5.1,1-7.6,6.1-8.3,11.2c-0.2,2,5.3,3.9,6.1,6.2c1.4,4.5-0.5,9.9-5,13.7c-4.5,3.8-10.5,5.3-15.2,3.6c-2.5-0.9-3.9-6.3-6.1-6.2
		c-5.5,0.1-11.1,2-12.7,6.6c-0.9,2.8,3.7,7.6,6.7,10.9C498.9,335,514.6,323.1,523,315.8L523,315.8z"/>
</g>
<g>
	<linearGradient id="SVGID_5_" gradientUnits="userSpaceOnUse" x1="63.2449" y1="140.7174" x2="1311.1052" y2="1388.5778">
		<stop  offset="0" style="stop-color:#E69F86"/>
		<stop  offset="1" style="stop-color:#D56CC7"/>
	</linearGradient>
	<polygon fill-rule="evenodd" clip-rule="evenodd" fill="url(#SVGID_5_)" points="1249.4,1077.1 952.8,1248.1 913,1240.3 
		1200,1074.7 1200,1067.3 1193,1063.3 1193,1044.9 	"/>
	<g>
		<polygon fill-rule="evenodd" clip-rule="evenodd" fill="#CCCCCC" points="712,1087.4 908.4,1200.8 908.4,1230.4 712,1117 		"/>
		<polygon fill-rule="evenodd" clip-rule="evenodd" fill="#999999" points="1193,1036.4 908.4,1200.8 908.4,1230.4 1193,1066 		"/>
		<path fill-rule="evenodd" clip-rule="evenodd" fill="#4B73FF" d="M1200.1,1029.8l-287,165.7l-210.1-121.3l287-165.6L1200.1,1029.8
			z M1200,1067.3l-287,165.7l-4.7-2.7L1193,1066v-2.7L1200,1067.3z"/>
		<path fill-rule="evenodd" clip-rule="evenodd" fill="#244BD8" d="M703,1074.2l210,121.3v8l-201-116.1v29.6l201,116v7.2l-210-121.2
			C693.3,1105.6,695.6,1077.2,703,1074.2L703,1074.2z"/>
		<path fill-rule="evenodd" clip-rule="evenodd" fill="#1E3DAF" d="M1200,1029.8l-287,165.7v8l287-165.8V1029.8z M913,1233.1v7.2
			l287-165.6v-7.4L913,1233.1z"/>
		<path fill-rule="evenodd" clip-rule="evenodd" fill="#66FFCC" d="M1148.5,1000.1l-286.9,165.7l15.5,8.9L1164,1009L1148.5,1000.1z
			 M1122.5,985l-286.9,165.7l15.5,8.9L1138,994L1122.5,985z"/>
	</g>
</g>
<g>
	<linearGradient id="SVGID_6_" gradientUnits="userSpaceOnUse" x1="-239.373" y1="443.3352" x2="1008.4874" y2="1691.1957">
		<stop  offset="0" style="stop-color:#E69F86"/>
		<stop  offset="1" style="stop-color:#D56CC7"/>
	</linearGradient>
	<path fill-rule="evenodd" clip-rule="evenodd" fill="url(#SVGID_6_)" d="M359.9,888.7L178.2,993.7l-31,6.9l11.1-10.8l183.3-105.8
		l-3.6-12.5l11.3-1.1C361.9,869.8,373.2,881.4,359.9,888.7L359.9,888.7z"/>
	<g>
		<path fill-rule="evenodd" clip-rule="evenodd" fill="#333333" d="M341.6,870.9L158.3,976.7v13l183.3-105.8
			C343.7,880,344.1,875.8,341.6,870.9L341.6,870.9z"/>
		<path fill-rule="evenodd" clip-rule="evenodd" fill="#666666" d="M341.6,870.9L158.3,976.7l-8.8-5.1l183.3-105.8
			C336.5,865.9,339.4,867.7,341.6,870.9L341.6,870.9z"/>
		<path fill-rule="evenodd" clip-rule="evenodd" fill="#1A1A1A" d="M149.5,971.6c12.8,1,12.9,12.3,8.8,18.1l-34.7,7.7L149.5,971.6z"
			/>
	</g>
</g>
<g>
	<polygon fill-rule="evenodd" clip-rule="evenodd" fill="#FFFFFF" points="592.7,1006 294.8,1178 100.4,1065.7 398.2,893.7 	"/>
	<path fill-rule="evenodd" clip-rule="evenodd" fill="#808080" d="M534.3,1011.1l-6.8,4L390,935.6l6.8-3.9L534.3,1011.1z
		 M343.9,1046.3l-6.3,3.6l-85.9-49.6l6.3-3.6L343.9,1046.3z M421.2,1076.4l-6.3,3.6l-150.6-87l6.3-3.6L421.2,1076.4z M433.8,1069.1
		l-6.3,3.6l-150.6-86.9l6.3-3.6L433.8,1069.1z M446.4,1061.9l-6.3,3.6l-137.6-79.4l6.3-3.6L446.4,1061.9z M344,973.8l-6.3,3.6
		L314.6,964l6.3-3.6L344,973.8z M484.1,1040.1l-6.3,3.6l-150.6-86.9l6.3-3.6L484.1,1040.1z M496.6,1032.8l-6.3,3.6l-150.6-86.9
		l6.3-3.6L496.6,1032.8z M509.2,1025.6l-6.3,3.6l-150.6-87l6.3-3.6L509.2,1025.6z M521.8,1018.4l-6.3,3.6L364.9,935l6.3-3.6
		L521.8,1018.4z"/>
</g>
</svg>
